<svg width="33" height="33" viewBox="0 0 33 33" fill="none" xmlns="http://www.w3.org/2000/svg">
<g clip-path="url(#clip0)">
<path d="M30.2692 0H2.96582C1.30897 0 -0.0341797 1.34315 -0.0341797 3V30.3034C-0.0341797 31.9603 1.30897 33.3034 2.96582 33.3034H30.2692C31.9261 33.3034 33.2692 31.9603 33.2692 30.3034V3C33.2692 1.34315 31.9261 0 30.2692 0Z" fill="#000000DE"/>
<path d="M6.63485 22.5307C6.98574 23.342 8.18366 23.6047 9.31048 23.1173C10.4373 22.63 11.0663 21.5772 10.7154 20.7659C10.3645 19.9546 9.16661 19.6919 8.03979 20.1793C6.91297 20.6666 6.28396 21.7194 6.63485 22.5307Z" fill="white"/>
<path d="M10.8148 11.2673C10.8148 11.1197 10.6951 11 10.5475 11C10.3999 11 10.2803 11.1197 10.2803 11.2673V20.9975C10.2803 21.1451 10.3999 21.2648 10.5475 21.2648C10.6951 21.2648 10.8148 21.1451 10.8148 20.9975V11.2673Z" fill="white"/>
<path d="M14.4571 22.5307C14.808 23.342 16.0059 23.6047 17.1327 23.1173C18.2596 22.63 18.8886 21.5772 18.5377 20.7659C18.1868 19.9546 16.9889 19.6919 15.8621 20.1793C14.7352 20.6666 14.1062 21.7194 14.4571 22.5307Z" fill="white"/>
<path d="M18.6371 11.2673C18.6371 11.1197 18.5174 11 18.3698 11C18.2222 11 18.1025 11.1197 18.1025 11.2673V20.9975C18.1025 21.1451 18.2222 21.2648 18.3698 21.2648C18.5174 21.2648 18.6371 21.1451 18.6371 20.9975V11.2673Z" fill="white"/>
<path d="M22.2774 22.5307C22.6283 23.342 23.8262 23.6047 24.9531 23.1173C26.0799 22.63 26.7089 21.5772 26.358 20.7659C26.0071 19.9546 24.8092 19.6919 23.6824 20.1793C22.5556 20.6666 21.9265 21.7194 22.2774 22.5307Z" fill="white"/>
<path d="M26.4574 11.2673C26.4574 11.1197 26.3377 11 26.1901 11C26.0425 11 25.9229 11.1197 25.9229 11.2673V20.9975C25.9229 21.1451 26.0425 21.2648 26.1901 21.2648C26.3377 21.2648 26.4574 21.1451 26.4574 20.9975V11.2673Z" fill="white"/>
<path d="M25.7654 11H10.9626C10.5831 11 10.2754 11.3077 10.2754 11.6872C10.2754 12.0668 10.5831 12.3745 10.9626 12.3745H25.7654C26.1449 12.3745 26.4526 12.0668 26.4526 11.6872C26.4526 11.3077 26.1449 11 25.7654 11Z" fill="white"/>
<path d="M17.3131 8.50005H16.6951L16.6891 8.54205C16.5571 9.47805 17.0311 10.072 18.0991 10.072C19.0291 10.072 19.6051 9.51405 19.7011 8.82405L19.7191 8.69205C19.7971 8.12805 19.5331 7.73205 19.0771 7.60005C19.5451 7.48005 19.8991 7.12005 19.9591 6.66405L19.9771 6.53205C20.0731 5.81805 19.6171 5.24805 18.5971 5.24805C17.6011 5.24805 17.1091 5.75205 16.9651 6.71805L16.9411 6.88005H17.5591C17.6611 6.10005 17.9971 5.79405 18.5611 5.79405H18.6091C19.1131 5.79405 19.4131 6.07605 19.3471 6.59205L19.3411 6.64005C19.2811 7.13205 18.9091 7.34205 18.4171 7.34205H17.7751L17.7031 7.88205H18.3691C18.8671 7.88205 19.1551 8.16405 19.0891 8.68005L19.0831 8.72805C19.0171 9.27405 18.5791 9.52605 18.1231 9.52605H18.0751C17.5171 9.52605 17.2231 9.26805 17.3131 8.50005Z" fill="white"/>
</g>
<defs>
<clipPath id="clip0">
<rect width="33" height="33" fill="white"/>
</clipPath>
</defs>
</svg>
