<svg width="34" height="34" viewBox="0 0 34 34" fill="none" xmlns="http://www.w3.org/2000/svg">
<rect x="0.310547" width="33.3034" height="33.3034" rx="3" fill="#293E4A"/>
<ellipse cx="5.67605" cy="20.6484" rx="1.60061" ry="2.22304" transform="rotate(66.6118 5.67605 20.6484)" fill="white"/>
<rect x="7.28125" y="10" width="0.53454" height="10.2654" rx="0.26727" fill="white"/>
<ellipse cx="12.7337" cy="20.6484" rx="1.60061" ry="2.22304" transform="rotate(66.6118 12.7337 20.6484)" fill="white"/>
<rect x="14.3389" y="10" width="0.53454" height="10.2654" rx="0.26727" fill="white"/>
<ellipse cx="19.7923" cy="20.6484" rx="1.60061" ry="2.22304" transform="rotate(66.6118 19.7923 20.6484)" fill="white"/>
<rect x="21.3975" y="10" width="0.53454" height="10.2654" rx="0.26727" fill="white"/>
<ellipse cx="26.8509" cy="20.6484" rx="1.60061" ry="2.22304" transform="rotate(66.6118 26.8509 20.6484)" fill="white"/>
<rect x="28.4561" y="10" width="0.53454" height="10.2654" rx="0.26727" fill="white"/>
<rect x="7.27637" y="10" width="21.7089" height="1.37453" rx="0.687266" fill="white"/>
<rect x="7.27637" y="12.5527" width="21.7089" height="1.37453" rx="0.687266" fill="white"/>
</svg>
